#N canvas 4 4 1920 1026 12;
#X obj 221 164 oscparse;
#X msg 333 44 listen 5005;
#X obj 217 232 route list;
#X obj 220 277 route cell;
#X obj 8653 774 route 3;
#X obj 8580 871 route 0;
#X obj 8669 871 route 1;
#X obj 8759 871 route 2;
#X obj 131 919 line~;
#X obj 126 950 sqrt~;
#X obj 153 1074 cos~;
#X msg 131 862 0 \, 20 1000;
#X obj 143 781 metro 1;
#X obj 50 666 unpack f f f;
#X floatatom 59 743 5 0 0 0 - - - 0;
#X obj 49 595 route rgb;
#X obj 129 723 tgl 19 0 empty empty empty 0 -10 0 12 #fcfcfc #000000 #000000 0 1;
#X obj 147 825 bng 19 250 50 0 empty empty empty 0 -10 0 12 #fcfcfc #000000 #000000;
#X obj 173 1136 dac~;
#X obj 56 702 * 1000;
#X obj 132 989 *~ 1;
#X obj 41 1027 +~ 1;
#X obj 115 1058 *~ 35;
#X obj 281 926 line~;
#X obj 276 957 sqrt~;
#X obj 303 1081 cos~;
#X msg 281 869 0 \, 20 1000;
#X obj 293 788 metro 1;
#X floatatom 209 750 5 0 0 0 - - - 0;
#X obj 279 730 tgl 19 0 empty empty empty 0 -10 0 12 #fcfcfc #000000 #000000 0 1;
#X obj 297 832 bng 19 250 50 0 empty empty empty 0 -10 0 12 #fcfcfc #000000 #000000;
#X obj 323 1143 dac~;
#X obj 282 996 *~ 1;
#X obj 191 1034 +~ 1;
#X obj 265 1065 *~ 35;
#X obj 206 709 * 500;
#X obj 439 929 line~;
#X obj 434 960 sqrt~;
#X obj 461 1084 cos~;
#X msg 439 872 0 \, 20 1000;
#X obj 451 791 metro 1;
#X floatatom 367 753 5 0 0 0 - - - 0;
#X obj 437 733 tgl 19 0 empty empty empty 0 -10 0 12 #fcfcfc #000000 #000000 0 1;
#X obj 455 835 bng 19 250 50 0 empty empty empty 0 -10 0 12 #fcfcfc #000000 #000000;
#X obj 481 1146 dac~;
#X obj 440 999 *~ 1;
#X obj 349 1037 +~ 1;
#X obj 423 1068 *~ 35;
#X obj 364 712 * 250;
#X obj 574 915 bng 19 250 50 0 empty empty empty 0 -10 0 12 #fcfcfc #000000 #000000;
#X obj 549 1162 noteout;
#X msg 570 1039 100;
#X msg 549 984 40;
#X msg 600 1084 10;
#X obj 554 865 metro 1;
#X floatatom 532 812 5 0 0 0 - - - 0;
#X obj 616 796 tgl 19 0 empty empty empty 0 -10 0 12 #fcfcfc #000000 #000000 0 1;
#X obj 543 775 * 1000;
#X obj 499 738 f;
#X obj 557 706 route brightness;
#X obj 213 107 netreceive -u -b;
#X obj 173 408 route 0;
#X obj 93 528 route 0;
#X obj 1018 549 route 1;
#X obj 2080 601 route 2;
#X obj 3097 664 route 3;
#X obj 4476 501 route 1;
#X obj 726 707 route contrast;
#X obj 785 948 bng 19 250 50 0 empty empty empty 0 -10 0 12 #fcfcfc #000000 #000000;
#X obj 760 1195 noteout;
#X msg 781 1072 100;
#X msg 811 1117 10;
#X obj 765 898 metro 1;
#X floatatom 743 845 5 0 0 0 - - - 0;
#X obj 827 829 tgl 19 0 empty empty empty 0 -10 0 12 #fcfcfc #000000 #000000 0 1;
#X obj 710 771 f;
#X obj 754 808 * 10000;
#X msg 760 1017 45;
#X obj 873 708 route dominant;
#X obj 951 941 bng 19 250 50 0 empty empty empty 0 -10 0 12 #fcfcfc #000000 #000000;
#X obj 926 1188 noteout;
#X msg 947 1065 100;
#X msg 977 1110 10;
#X obj 931 891 metro 1;
#X floatatom 909 838 5 0 0 0 - - - 0;
#X obj 993 822 tgl 19 0 empty empty empty 0 -10 0 12 #fcfcfc #000000 #000000 0 1;
#X obj 876 764 f;
#X obj 920 801 * 1000;
#X msg 926 1011 50;
#X obj 1120 1003 line~;
#X obj 1115 1034 sqrt~;
#X obj 1142 1158 cos~;
#X msg 1120 946 0 \, 20 1000;
#X obj 1132 865 metro 1;
#X obj 1039 750 unpack f f f;
#X floatatom 1048 827 5 0 0 0 - - - 0;
#X obj 1038 679 route rgb;
#X obj 1118 807 tgl 19 0 empty empty empty 0 -10 0 12 #fcfcfc #000000 #000000 0 1;
#X obj 1136 909 bng 19 250 50 0 empty empty empty 0 -10 0 12 #fcfcfc #000000 #000000;
#X obj 1162 1220 dac~;
#X obj 1045 786 * 1000;
#X obj 1121 1073 *~ 1;
#X obj 1030 1111 +~ 1;
#X obj 1104 1142 *~ 35;
#X obj 1270 1010 line~;
#X obj 1265 1041 sqrt~;
#X obj 1292 1165 cos~;
#X msg 1270 953 0 \, 20 1000;
#X obj 1282 872 metro 1;
#X floatatom 1198 834 5 0 0 0 - - - 0;
#X obj 1268 814 tgl 19 0 empty empty empty 0 -10 0 12 #fcfcfc #000000 #000000 0 1;
#X obj 1286 916 bng 19 250 50 0 empty empty empty 0 -10 0 12 #fcfcfc #000000 #000000;
#X obj 1312 1227 dac~;
#X obj 1271 1080 *~ 1;
#X obj 1180 1118 +~ 1;
#X obj 1254 1149 *~ 35;
#X obj 1195 793 * 500;
#X obj 1428 1013 line~;
#X obj 1423 1044 sqrt~;
#X obj 1450 1168 cos~;
#X msg 1428 956 0 \, 20 1000;
#X obj 1440 875 metro 1;
#X floatatom 1356 837 5 0 0 0 - - - 0;
#X obj 1426 817 tgl 19 0 empty empty empty 0 -10 0 12 #fcfcfc #000000 #000000 0 1;
#X obj 1444 919 bng 19 250 50 0 empty empty empty 0 -10 0 12 #fcfcfc #000000 #000000;
#X obj 1470 1230 dac~;
#X obj 1429 1083 *~ 1;
#X obj 1338 1121 +~ 1;
#X obj 1412 1152 *~ 35;
#X obj 1353 796 * 250;
#X obj 1563 999 bng 19 250 50 0 empty empty empty 0 -10 0 12 #fcfcfc #000000 #000000;
#X obj 1538 1246 noteout;
#X msg 1559 1123 100;
#X msg 1589 1168 10;
#X obj 1543 949 metro 1;
#X floatatom 1521 896 5 0 0 0 - - - 0;
#X obj 1605 880 tgl 19 0 empty empty empty 0 -10 0 12 #fcfcfc #000000 #000000 0 1;
#X obj 1532 859 * 1000;
#X obj 1488 822 f;
#X obj 1546 790 route brightness;
#X obj 1715 791 route contrast;
#X obj 1774 1032 bng 19 250 50 0 empty empty empty 0 -10 0 12 #fcfcfc #000000 #000000;
#X obj 1749 1279 noteout;
#X msg 1770 1156 100;
#X msg 1800 1201 10;
#X obj 1754 982 metro 1;
#X floatatom 1732 929 5 0 0 0 - - - 0;
#X obj 1816 913 tgl 19 0 empty empty empty 0 -10 0 12 #fcfcfc #000000 #000000 0 1;
#X obj 1699 855 f;
#X obj 1743 892 * 10000;
#X obj 1862 792 route dominant;
#X obj 1940 1025 bng 19 250 50 0 empty empty empty 0 -10 0 12 #fcfcfc #000000 #000000;
#X obj 1915 1272 noteout;
#X msg 1936 1149 100;
#X msg 1966 1194 10;
#X obj 1920 975 metro 1;
#X floatatom 1898 922 5 0 0 0 - - - 0;
#X obj 1982 906 tgl 19 0 empty empty empty 0 -10 0 12 #fcfcfc #000000 #000000 0 1;
#X obj 1865 848 f;
#X obj 1909 885 * 1000;
#X msg 1538 1068 55;
#X msg 1749 1101 60;
#X msg 1915 1095 65;
#X obj 2137 1077 line~;
#X obj 2132 1108 sqrt~;
#X obj 2159 1232 cos~;
#X msg 2137 1020 0 \, 20 1000;
#X obj 2149 939 metro 1;
#X obj 2056 824 unpack f f f;
#X floatatom 2065 901 5 0 0 0 - - - 0;
#X obj 2055 753 route rgb;
#X obj 2135 881 tgl 19 0 empty empty empty 0 -10 0 12 #fcfcfc #000000 #000000 0 1;
#X obj 2153 983 bng 19 250 50 0 empty empty empty 0 -10 0 12 #fcfcfc #000000 #000000;
#X obj 2179 1294 dac~;
#X obj 2062 860 * 1000;
#X obj 2138 1147 *~ 1;
#X obj 2047 1185 +~ 1;
#X obj 2121 1216 *~ 35;
#X obj 2287 1084 line~;
#X obj 2282 1115 sqrt~;
#X obj 2309 1239 cos~;
#X msg 2287 1027 0 \, 20 1000;
#X obj 2299 946 metro 1;
#X floatatom 2215 908 5 0 0 0 - - - 0;
#X obj 2285 888 tgl 19 0 empty empty empty 0 -10 0 12 #fcfcfc #000000 #000000 0 1;
#X obj 2303 990 bng 19 250 50 0 empty empty empty 0 -10 0 12 #fcfcfc #000000 #000000;
#X obj 2329 1301 dac~;
#X obj 2288 1154 *~ 1;
#X obj 2197 1192 +~ 1;
#X obj 2271 1223 *~ 35;
#X obj 2212 867 * 500;
#X obj 2445 1087 line~;
#X obj 2440 1118 sqrt~;
#X obj 2467 1242 cos~;
#X msg 2445 1030 0 \, 20 1000;
#X obj 2457 949 metro 1;
#X floatatom 2373 911 5 0 0 0 - - - 0;
#X obj 2443 891 tgl 19 0 empty empty empty 0 -10 0 12 #fcfcfc #000000 #000000 0 1;
#X obj 2461 993 bng 19 250 50 0 empty empty empty 0 -10 0 12 #fcfcfc #000000 #000000;
#X obj 2487 1304 dac~;
#X obj 2446 1157 *~ 1;
#X obj 2355 1195 +~ 1;
#X obj 2429 1226 *~ 35;
#X obj 2370 870 * 250;
#X obj 2580 1073 bng 19 250 50 0 empty empty empty 0 -10 0 12 #fcfcfc #000000 #000000;
#X obj 2555 1320 noteout;
#X msg 2576 1197 100;
#X msg 2606 1242 10;
#X obj 2560 1023 metro 1;
#X floatatom 2538 970 5 0 0 0 - - - 0;
#X obj 2622 954 tgl 19 0 empty empty empty 0 -10 0 12 #fcfcfc #000000 #000000 0 1;
#X obj 2549 933 * 1000;
#X obj 2505 896 f;
#X obj 2563 864 route brightness;
#X obj 2732 865 route contrast;
#X obj 2791 1106 bng 19 250 50 0 empty empty empty 0 -10 0 12 #fcfcfc #000000 #000000;
#X obj 2766 1353 noteout;
#X msg 2787 1230 100;
#X msg 2817 1275 10;
#X obj 2771 1056 metro 1;
#X floatatom 2749 1003 5 0 0 0 - - - 0;
#X obj 2833 987 tgl 19 0 empty empty empty 0 -10 0 12 #fcfcfc #000000 #000000 0 1;
#X obj 2716 929 f;
#X obj 2760 966 * 10000;
#X obj 2879 866 route dominant;
#X obj 2957 1099 bng 19 250 50 0 empty empty empty 0 -10 0 12 #fcfcfc #000000 #000000;
#X obj 2932 1346 noteout;
#X msg 2953 1223 100;
#X msg 2983 1268 10;
#X obj 2937 1049 metro 1;
#X floatatom 2915 996 5 0 0 0 - - - 0;
#X obj 2999 980 tgl 19 0 empty empty empty 0 -10 0 12 #fcfcfc #000000 #000000 0 1;
#X obj 2882 922 f;
#X obj 2926 959 * 1000;
#X msg 2555 1142 70;
#X msg 2766 1175 75;
#X msg 2932 1169 80;
#X obj 3147 1177 line~;
#X obj 3142 1208 sqrt~;
#X obj 3169 1332 cos~;
#X msg 3147 1120 0 \, 20 1000;
#X obj 3159 1039 metro 1;
#X obj 3066 924 unpack f f f;
#X floatatom 3075 1001 5 0 0 0 - - - 0;
#X obj 3065 853 route rgb;
#X obj 3145 981 tgl 19 0 empty empty empty 0 -10 0 12 #fcfcfc #000000 #000000 0 1;
#X obj 3163 1083 bng 19 250 50 0 empty empty empty 0 -10 0 12 #fcfcfc #000000 #000000;
#X obj 3189 1394 dac~;
#X obj 3072 960 * 1000;
#X obj 3148 1247 *~ 1;
#X obj 3057 1285 +~ 1;
#X obj 3131 1316 *~ 35;
#X obj 3297 1184 line~;
#X obj 3292 1215 sqrt~;
#X obj 3319 1339 cos~;
#X msg 3297 1127 0 \, 20 1000;
#X obj 3309 1046 metro 1;
#X floatatom 3225 1008 5 0 0 0 - - - 0;
#X obj 3295 988 tgl 19 0 empty empty empty 0 -10 0 12 #fcfcfc #000000 #000000 0 1;
#X obj 3313 1090 bng 19 250 50 0 empty empty empty 0 -10 0 12 #fcfcfc #000000 #000000;
#X obj 3339 1401 dac~;
#X obj 3298 1254 *~ 1;
#X obj 3207 1292 +~ 1;
#X obj 3281 1323 *~ 35;
#X obj 3222 967 * 500;
#X obj 3455 1187 line~;
#X obj 3450 1218 sqrt~;
#X obj 3477 1342 cos~;
#X msg 3455 1130 0 \, 20 1000;
#X obj 3467 1049 metro 1;
#X floatatom 3383 1011 5 0 0 0 - - - 0;
#X obj 3453 991 tgl 19 0 empty empty empty 0 -10 0 12 #fcfcfc #000000 #000000 0 1;
#X obj 3471 1093 bng 19 250 50 0 empty empty empty 0 -10 0 12 #fcfcfc #000000 #000000;
#X obj 3497 1404 dac~;
#X obj 3456 1257 *~ 1;
#X obj 3365 1295 +~ 1;
#X obj 3439 1326 *~ 35;
#X obj 3380 970 * 250;
#X obj 3590 1173 bng 19 250 50 0 empty empty empty 0 -10 0 12 #fcfcfc #000000 #000000;
#X obj 3565 1420 noteout;
#X msg 3586 1297 100;
#X msg 3616 1342 10;
#X obj 3570 1123 metro 1;
#X floatatom 3548 1070 5 0 0 0 - - - 0;
#X obj 3632 1054 tgl 19 0 empty empty empty 0 -10 0 12 #fcfcfc #000000 #000000 0 1;
#X obj 3559 1033 * 1000;
#X obj 3515 996 f;
#X obj 3573 964 route brightness;
#X obj 3742 965 route contrast;
#X obj 3801 1206 bng 19 250 50 0 empty empty empty 0 -10 0 12 #fcfcfc #000000 #000000;
#X obj 3776 1453 noteout;
#X msg 3797 1330 100;
#X msg 3827 1375 10;
#X obj 3781 1156 metro 1;
#X floatatom 3759 1103 5 0 0 0 - - - 0;
#X obj 3843 1087 tgl 19 0 empty empty empty 0 -10 0 12 #fcfcfc #000000 #000000 0 1;
#X obj 3726 1029 f;
#X obj 3770 1066 * 10000;
#X obj 3889 966 route dominant;
#X obj 3967 1199 bng 19 250 50 0 empty empty empty 0 -10 0 12 #fcfcfc #000000 #000000;
#X obj 3942 1446 noteout;
#X msg 3963 1323 100;
#X msg 3993 1368 10;
#X obj 3947 1149 metro 1;
#X floatatom 3925 1096 5 0 0 0 - - - 0;
#X obj 4009 1080 tgl 19 0 empty empty empty 0 -10 0 12 #fcfcfc #000000 #000000 0 1;
#X obj 3892 1022 f;
#X obj 3936 1059 * 1000;
#X msg 3565 1242 70;
#X msg 3776 1275 75;
#X msg 3942 1269 80;
#X obj 4189 1210 line~;
#X obj 4184 1241 sqrt~;
#X obj 4211 1365 cos~;
#X msg 4189 1153 0 \, 20 1000;
#X obj 4201 1072 metro 1;
#X obj 4108 957 unpack f f f;
#X floatatom 4117 1034 5 0 0 0 - - - 0;
#X obj 4107 886 route rgb;
#X obj 4187 1014 tgl 19 0 empty empty empty 0 -10 0 12 #fcfcfc #000000 #000000 0 1;
#X obj 4205 1116 bng 19 250 50 0 empty empty empty 0 -10 0 12 #fcfcfc #000000 #000000;
#X obj 4231 1427 dac~;
#X obj 4114 993 * 1000;
#X obj 4190 1280 *~ 1;
#X obj 4099 1318 +~ 1;
#X obj 4173 1349 *~ 35;
#X obj 4339 1217 line~;
#X obj 4334 1248 sqrt~;
#X obj 4361 1372 cos~;
#X msg 4339 1160 0 \, 20 1000;
#X obj 4351 1079 metro 1;
#X floatatom 4267 1041 5 0 0 0 - - - 0;
#X obj 4337 1021 tgl 19 0 empty empty empty 0 -10 0 12 #fcfcfc #000000 #000000 0 1;
#X obj 4355 1123 bng 19 250 50 0 empty empty empty 0 -10 0 12 #fcfcfc #000000 #000000;
#X obj 4381 1434 dac~;
#X obj 4340 1287 *~ 1;
#X obj 4249 1325 +~ 1;
#X obj 4323 1356 *~ 35;
#X obj 4264 1000 * 500;
#X obj 4497 1220 line~;
#X obj 4492 1251 sqrt~;
#X obj 4519 1375 cos~;
#X msg 4497 1163 0 \, 20 1000;
#X obj 4509 1082 metro 1;
#X floatatom 4425 1044 5 0 0 0 - - - 0;
#X obj 4495 1024 tgl 19 0 empty empty empty 0 -10 0 12 #fcfcfc #000000 #000000 0 1;
#X obj 4513 1126 bng 19 250 50 0 empty empty empty 0 -10 0 12 #fcfcfc #000000 #000000;
#X obj 4539 1437 dac~;
#X obj 4498 1290 *~ 1;
#X obj 4407 1328 +~ 1;
#X obj 4481 1359 *~ 35;
#X obj 4422 1003 * 250;
#X obj 4632 1206 bng 19 250 50 0 empty empty empty 0 -10 0 12 #fcfcfc #000000 #000000;
#X obj 4607 1453 noteout;
#X msg 4628 1330 100;
#X msg 4607 1275 40;
#X obj 4612 1156 metro 1;
#X floatatom 4590 1103 5 0 0 0 - - - 0;
#X obj 4674 1087 tgl 19 0 empty empty empty 0 -10 0 12 #fcfcfc #000000 #000000 0 1;
#X obj 4601 1066 * 1000;
#X obj 4557 1029 f;
#X obj 4615 997 route brightness;
#X obj 4148 759 route 0;
#X obj 4784 998 route contrast;
#X obj 4843 1239 bng 19 250 50 0 empty empty empty 0 -10 0 12 #fcfcfc #000000 #000000;
#X obj 4818 1486 noteout;
#X msg 4839 1363 100;
#X obj 4823 1189 metro 1;
#X floatatom 4801 1136 5 0 0 0 - - - 0;
#X obj 4885 1120 tgl 19 0 empty empty empty 0 -10 0 12 #fcfcfc #000000 #000000 0 1;
#X obj 4768 1062 f;
#X obj 4812 1099 * 10000;
#X obj 4931 999 route dominant;
#X obj 5009 1232 bng 19 250 50 0 empty empty empty 0 -10 0 12 #fcfcfc #000000 #000000;
#X obj 4984 1479 noteout;
#X msg 5005 1356 100;
#X obj 4989 1182 metro 1;
#X floatatom 4967 1129 5 0 0 0 - - - 0;
#X obj 5051 1113 tgl 19 0 empty empty empty 0 -10 0 12 #fcfcfc #000000 #000000 0 1;
#X obj 4934 1055 f;
#X obj 4978 1092 * 1000;
#X msg 4658 1375 1;
#X msg 4869 1408 1;
#X msg 5035 1401 1;
#X obj 5176 1242 line~;
#X obj 5171 1273 sqrt~;
#X obj 5198 1397 cos~;
#X msg 5176 1185 0 \, 20 1000;
#X obj 5188 1104 metro 1;
#X obj 5095 989 unpack f f f;
#X floatatom 5104 1066 5 0 0 0 - - - 0;
#X obj 5094 918 route rgb;
#X obj 5174 1046 tgl 19 0 empty empty empty 0 -10 0 12 #fcfcfc #000000 #000000 0 1;
#X obj 5192 1148 bng 19 250 50 0 empty empty empty 0 -10 0 12 #fcfcfc #000000 #000000;
#X obj 5218 1459 dac~;
#X obj 5101 1025 * 1000;
#X obj 5177 1312 *~ 1;
#X obj 5086 1350 +~ 1;
#X obj 5160 1381 *~ 35;
#X obj 5326 1249 line~;
#X obj 5321 1280 sqrt~;
#X obj 5348 1404 cos~;
#X msg 5326 1192 0 \, 20 1000;
#X obj 5338 1111 metro 1;
#X floatatom 5254 1073 5 0 0 0 - - - 0;
#X obj 5324 1053 tgl 19 0 empty empty empty 0 -10 0 12 #fcfcfc #000000 #000000 0 1;
#X obj 5342 1155 bng 19 250 50 0 empty empty empty 0 -10 0 12 #fcfcfc #000000 #000000;
#X obj 5368 1466 dac~;
#X obj 5327 1319 *~ 1;
#X obj 5236 1357 +~ 1;
#X obj 5310 1388 *~ 35;
#X obj 5251 1032 * 500;
#X obj 5484 1252 line~;
#X obj 5479 1283 sqrt~;
#X obj 5506 1407 cos~;
#X msg 5484 1195 0 \, 20 1000;
#X obj 5496 1114 metro 1;
#X floatatom 5412 1076 5 0 0 0 - - - 0;
#X obj 5482 1056 tgl 19 0 empty empty empty 0 -10 0 12 #fcfcfc #000000 #000000 0 1;
#X obj 5500 1158 bng 19 250 50 0 empty empty empty 0 -10 0 12 #fcfcfc #000000 #000000;
#X obj 5526 1469 dac~;
#X obj 5485 1322 *~ 1;
#X obj 5394 1360 +~ 1;
#X obj 5468 1391 *~ 35;
#X obj 5409 1035 * 250;
#X obj 5619 1238 bng 19 250 50 0 empty empty empty 0 -10 0 12 #fcfcfc #000000 #000000;
#X obj 5594 1485 noteout;
#X msg 5615 1362 100;
#X obj 5599 1188 metro 1;
#X floatatom 5577 1135 5 0 0 0 - - - 0;
#X obj 5661 1119 tgl 19 0 empty empty empty 0 -10 0 12 #fcfcfc #000000 #000000 0 1;
#X obj 5588 1098 * 1000;
#X obj 5544 1061 f;
#X obj 5602 1029 route brightness;
#X obj 5771 1030 route contrast;
#X obj 5830 1271 bng 19 250 50 0 empty empty empty 0 -10 0 12 #fcfcfc #000000 #000000;
#X obj 5805 1518 noteout;
#X msg 5826 1395 100;
#X obj 5810 1221 metro 1;
#X floatatom 5788 1168 5 0 0 0 - - - 0;
#X obj 5872 1152 tgl 19 0 empty empty empty 0 -10 0 12 #fcfcfc #000000 #000000 0 1;
#X obj 5755 1094 f;
#X obj 5799 1131 * 10000;
#X obj 5918 1031 route dominant;
#X obj 5996 1264 bng 19 250 50 0 empty empty empty 0 -10 0 12 #fcfcfc #000000 #000000;
#X obj 5971 1511 noteout;
#X msg 5992 1388 100;
#X obj 5976 1214 metro 1;
#X floatatom 5954 1161 5 0 0 0 - - - 0;
#X obj 6038 1145 tgl 19 0 empty empty empty 0 -10 0 12 #fcfcfc #000000 #000000 0 1;
#X obj 5921 1087 f;
#X obj 5965 1124 * 1000;
#X msg 5645 1407 1;
#X msg 5856 1440 1;
#X msg 6022 1433 1;
#X msg 4818 1308 41;
#X msg 4984 1302 42;
#X msg 5594 1307 43;
#X msg 5805 1340 44;
#X msg 5971 1334 45;
#X obj 6177 1265 line~;
#X obj 6172 1296 sqrt~;
#X obj 6199 1420 cos~;
#X msg 6177 1208 0 \, 20 1000;
#X obj 6189 1127 metro 1;
#X obj 6096 1012 unpack f f f;
#X floatatom 6105 1089 5 0 0 0 - - - 0;
#X obj 6095 941 route rgb;
#X obj 6175 1069 tgl 19 0 empty empty empty 0 -10 0 12 #fcfcfc #000000 #000000 0 1;
#X obj 6193 1171 bng 19 250 50 0 empty empty empty 0 -10 0 12 #fcfcfc #000000 #000000;
#X obj 6219 1482 dac~;
#X obj 6102 1048 * 1000;
#X obj 6178 1335 *~ 1;
#X obj 6087 1373 +~ 1;
#X obj 6161 1404 *~ 35;
#X obj 6327 1272 line~;
#X obj 6322 1303 sqrt~;
#X obj 6349 1427 cos~;
#X msg 6327 1215 0 \, 20 1000;
#X obj 6339 1134 metro 1;
#X floatatom 6255 1096 5 0 0 0 - - - 0;
#X obj 6325 1076 tgl 19 0 empty empty empty 0 -10 0 12 #fcfcfc #000000 #000000 0 1;
#X obj 6343 1178 bng 19 250 50 0 empty empty empty 0 -10 0 12 #fcfcfc #000000 #000000;
#X obj 6369 1489 dac~;
#X obj 6328 1342 *~ 1;
#X obj 6237 1380 +~ 1;
#X obj 6311 1411 *~ 35;
#X obj 6252 1055 * 500;
#X obj 6485 1275 line~;
#X obj 6480 1306 sqrt~;
#X obj 6507 1430 cos~;
#X msg 6485 1218 0 \, 20 1000;
#X obj 6497 1137 metro 1;
#X floatatom 6413 1099 5 0 0 0 - - - 0;
#X obj 6483 1079 tgl 19 0 empty empty empty 0 -10 0 12 #fcfcfc #000000 #000000 0 1;
#X obj 6501 1181 bng 19 250 50 0 empty empty empty 0 -10 0 12 #fcfcfc #000000 #000000;
#X obj 6527 1492 dac~;
#X obj 6486 1345 *~ 1;
#X obj 6395 1383 +~ 1;
#X obj 6469 1414 *~ 35;
#X obj 6410 1058 * 250;
#X obj 6620 1261 bng 19 250 50 0 empty empty empty 0 -10 0 12 #fcfcfc #000000 #000000;
#X obj 6595 1508 noteout;
#X msg 6616 1385 100;
#X obj 6600 1211 metro 1;
#X floatatom 6578 1158 5 0 0 0 - - - 0;
#X obj 6662 1142 tgl 19 0 empty empty empty 0 -10 0 12 #fcfcfc #000000 #000000 0 1;
#X obj 6589 1121 * 1000;
#X obj 6545 1084 f;
#X obj 6603 1052 route brightness;
#X obj 6772 1053 route contrast;
#X obj 6831 1294 bng 19 250 50 0 empty empty empty 0 -10 0 12 #fcfcfc #000000 #000000;
#X obj 6806 1541 noteout;
#X msg 6827 1418 100;
#X obj 6811 1244 metro 1;
#X floatatom 6789 1191 5 0 0 0 - - - 0;
#X obj 6873 1175 tgl 19 0 empty empty empty 0 -10 0 12 #fcfcfc #000000 #000000 0 1;
#X obj 6756 1117 f;
#X obj 6800 1154 * 10000;
#X obj 6919 1054 route dominant;
#X obj 6997 1287 bng 19 250 50 0 empty empty empty 0 -10 0 12 #fcfcfc #000000 #000000;
#X obj 6972 1534 noteout;
#X msg 6993 1411 100;
#X obj 6977 1237 metro 1;
#X floatatom 6955 1184 5 0 0 0 - - - 0;
#X obj 7039 1168 tgl 19 0 empty empty empty 0 -10 0 12 #fcfcfc #000000 #000000 0 1;
#X obj 6922 1110 f;
#X obj 6966 1147 * 1000;
#X msg 6646 1430 1;
#X msg 6857 1463 1;
#X msg 7023 1456 1;
#X msg 6595 1330 46;
#X msg 6806 1363 47;
#X msg 6972 1357 48;
#X obj 5010 744 route 1;
#X obj 5958 804 route 2;
#X obj 7176 1261 line~;
#X obj 7171 1292 sqrt~;
#X obj 7198 1416 cos~;
#X msg 7176 1204 0 \, 20 1000;
#X obj 7188 1123 metro 1;
#X obj 7095 1008 unpack f f f;
#X floatatom 7104 1085 5 0 0 0 - - - 0;
#X obj 7094 937 route rgb;
#X obj 7174 1065 tgl 19 0 empty empty empty 0 -10 0 12 #fcfcfc #000000 #000000 0 1;
#X obj 7192 1167 bng 19 250 50 0 empty empty empty 0 -10 0 12 #fcfcfc #000000 #000000;
#X obj 7218 1478 dac~;
#X obj 7101 1044 * 1000;
#X obj 7177 1331 *~ 1;
#X obj 7086 1369 +~ 1;
#X obj 7160 1400 *~ 35;
#X obj 7326 1268 line~;
#X obj 7321 1299 sqrt~;
#X obj 7348 1423 cos~;
#X msg 7326 1211 0 \, 20 1000;
#X obj 7338 1130 metro 1;
#X floatatom 7254 1092 5 0 0 0 - - - 0;
#X obj 7324 1072 tgl 19 0 empty empty empty 0 -10 0 12 #fcfcfc #000000 #000000 0 1;
#X obj 7342 1174 bng 19 250 50 0 empty empty empty 0 -10 0 12 #fcfcfc #000000 #000000;
#X obj 7368 1485 dac~;
#X obj 7327 1338 *~ 1;
#X obj 7236 1376 +~ 1;
#X obj 7310 1407 *~ 35;
#X obj 7251 1051 * 500;
#X obj 7484 1271 line~;
#X obj 7479 1302 sqrt~;
#X obj 7506 1426 cos~;
#X msg 7484 1214 0 \, 20 1000;
#X obj 7496 1133 metro 1;
#X floatatom 7412 1095 5 0 0 0 - - - 0;
#X obj 7482 1075 tgl 19 0 empty empty empty 0 -10 0 12 #fcfcfc #000000 #000000 0 1;
#X obj 7500 1177 bng 19 250 50 0 empty empty empty 0 -10 0 12 #fcfcfc #000000 #000000;
#X obj 7526 1488 dac~;
#X obj 7485 1341 *~ 1;
#X obj 7394 1379 +~ 1;
#X obj 7468 1410 *~ 35;
#X obj 7409 1054 * 250;
#X obj 7619 1257 bng 19 250 50 0 empty empty empty 0 -10 0 12 #fcfcfc #000000 #000000;
#X obj 7594 1504 noteout;
#X msg 7615 1381 100;
#X obj 7599 1207 metro 1;
#X floatatom 7577 1154 5 0 0 0 - - - 0;
#X obj 7661 1138 tgl 19 0 empty empty empty 0 -10 0 12 #fcfcfc #000000 #000000 0 1;
#X obj 7588 1117 * 1000;
#X obj 7544 1080 f;
#X obj 7602 1048 route brightness;
#X obj 7771 1049 route contrast;
#X obj 7830 1290 bng 19 250 50 0 empty empty empty 0 -10 0 12 #fcfcfc #000000 #000000;
#X obj 7805 1537 noteout;
#X msg 7826 1414 100;
#X obj 7810 1240 metro 1;
#X floatatom 7788 1187 5 0 0 0 - - - 0;
#X obj 7872 1171 tgl 19 0 empty empty empty 0 -10 0 12 #fcfcfc #000000 #000000 0 1;
#X obj 7755 1113 f;
#X obj 7799 1150 * 10000;
#X obj 7918 1050 route dominant;
#X obj 7996 1283 bng 19 250 50 0 empty empty empty 0 -10 0 12 #fcfcfc #000000 #000000;
#X obj 7971 1530 noteout;
#X msg 7992 1407 100;
#X obj 7976 1233 metro 1;
#X floatatom 7954 1180 5 0 0 0 - - - 0;
#X obj 8038 1164 tgl 19 0 empty empty empty 0 -10 0 12 #fcfcfc #000000 #000000 0 1;
#X obj 7921 1106 f;
#X obj 7965 1143 * 1000;
#X msg 7645 1426 1;
#X msg 7856 1459 1;
#X msg 8022 1452 1;
#X msg 7594 1326 49;
#X msg 7805 1359 50;
#X msg 7971 1353 51;
#X obj 6327 789 route 3;
#X obj 8241 771 route 2;
#X obj 8168 868 route 0;
#X obj 8248 871 route 1;
#X obj 8347 868 route 2;
#X connect 0 0 2 0;
#X connect 1 0 60 0;
#X connect 2 0 3 0;
#X connect 3 0 4 0;
#X connect 3 0 61 0;
#X connect 3 0 66 0;
#X connect 3 0 611 0;
#X connect 4 0 5 0;
#X connect 4 0 6 0;
#X connect 4 0 7 0;
#X connect 8 0 9 0;
#X connect 9 0 20 0;
#X connect 10 0 18 0;
#X connect 10 0 18 1;
#X connect 11 0 8 0;
#X connect 12 0 17 0;
#X connect 13 0 19 0;
#X connect 13 1 35 0;
#X connect 13 2 48 0;
#X connect 14 0 12 1;
#X connect 15 0 13 0;
#X connect 16 0 12 0;
#X connect 17 0 11 0;
#X connect 19 0 14 0;
#X connect 20 0 21 0;
#X connect 21 0 22 0;
#X connect 22 0 10 0;
#X connect 23 0 24 0;
#X connect 24 0 32 0;
#X connect 25 0 31 0;
#X connect 25 0 31 1;
#X connect 26 0 23 0;
#X connect 27 0 30 0;
#X connect 28 0 27 1;
#X connect 29 0 27 0;
#X connect 30 0 26 0;
#X connect 32 0 33 0;
#X connect 33 0 34 0;
#X connect 34 0 25 0;
#X connect 35 0 28 0;
#X connect 36 0 37 0;
#X connect 37 0 45 0;
#X connect 38 0 44 0;
#X connect 38 0 44 1;
#X connect 39 0 36 0;
#X connect 40 0 43 0;
#X connect 41 0 40 1;
#X connect 42 0 40 0;
#X connect 43 0 39 0;
#X connect 45 0 46 0;
#X connect 46 0 47 0;
#X connect 47 0 38 0;
#X connect 48 0 41 0;
#X connect 49 0 52 0;
#X connect 49 0 51 0;
#X connect 49 0 53 0;
#X connect 51 0 50 1;
#X connect 52 0 50 0;
#X connect 53 0 50 2;
#X connect 54 0 49 0;
#X connect 55 0 54 1;
#X connect 56 0 54 0;
#X connect 57 0 55 0;
#X connect 58 0 57 0;
#X connect 59 0 58 0;
#X connect 60 0 0 0;
#X connect 61 0 62 0;
#X connect 61 0 63 0;
#X connect 61 0 64 0;
#X connect 61 0 65 0;
#X connect 62 0 15 0;
#X connect 62 0 59 0;
#X connect 62 0 67 0;
#X connect 62 0 78 0;
#X connect 63 0 96 0;
#X connect 63 0 139 0;
#X connect 63 0 140 0;
#X connect 63 0 150 0;
#X connect 64 0 170 0;
#X connect 64 0 213 0;
#X connect 64 0 214 0;
#X connect 64 0 224 0;
#X connect 65 0 244 0;
#X connect 65 0 287 0;
#X connect 65 0 288 0;
#X connect 65 0 298 0;
#X connect 66 0 362 0;
#X connect 66 0 534 0;
#X connect 66 0 535 0;
#X connect 66 0 610 0;
#X connect 67 0 75 0;
#X connect 68 0 77 0;
#X connect 68 0 70 0;
#X connect 68 0 71 0;
#X connect 70 0 69 1;
#X connect 71 0 69 2;
#X connect 72 0 68 0;
#X connect 73 0 72 1;
#X connect 74 0 72 0;
#X connect 75 0 76 0;
#X connect 76 0 73 0;
#X connect 77 0 69 0;
#X connect 78 0 86 0;
#X connect 79 0 88 0;
#X connect 79 0 81 0;
#X connect 79 0 82 0;
#X connect 81 0 80 1;
#X connect 82 0 80 2;
#X connect 83 0 79 0;
#X connect 84 0 83 1;
#X connect 85 0 83 0;
#X connect 86 0 87 0;
#X connect 87 0 84 0;
#X connect 88 0 80 0;
#X connect 89 0 90 0;
#X connect 90 0 101 0;
#X connect 91 0 99 0;
#X connect 91 0 99 1;
#X connect 92 0 89 0;
#X connect 93 0 98 0;
#X connect 94 0 100 0;
#X connect 94 1 116 0;
#X connect 94 2 129 0;
#X connect 95 0 93 1;
#X connect 96 0 94 0;
#X connect 97 0 93 0;
#X connect 98 0 92 0;
#X connect 100 0 95 0;
#X connect 101 0 102 0;
#X connect 102 0 103 0;
#X connect 103 0 91 0;
#X connect 104 0 105 0;
#X connect 105 0 113 0;
#X connect 106 0 112 0;
#X connect 106 0 112 1;
#X connect 107 0 104 0;
#X connect 108 0 111 0;
#X connect 109 0 108 1;
#X connect 110 0 108 0;
#X connect 111 0 107 0;
#X connect 113 0 114 0;
#X connect 114 0 115 0;
#X connect 115 0 106 0;
#X connect 116 0 109 0;
#X connect 117 0 118 0;
#X connect 118 0 126 0;
#X connect 119 0 125 0;
#X connect 119 0 125 1;
#X connect 120 0 117 0;
#X connect 121 0 124 0;
#X connect 122 0 121 1;
#X connect 123 0 121 0;
#X connect 124 0 120 0;
#X connect 126 0 127 0;
#X connect 127 0 128 0;
#X connect 128 0 119 0;
#X connect 129 0 122 0;
#X connect 130 0 160 0;
#X connect 130 0 132 0;
#X connect 130 0 133 0;
#X connect 132 0 131 1;
#X connect 133 0 131 2;
#X connect 134 0 130 0;
#X connect 135 0 134 1;
#X connect 136 0 134 0;
#X connect 137 0 135 0;
#X connect 138 0 137 0;
#X connect 139 0 138 0;
#X connect 140 0 148 0;
#X connect 141 0 161 0;
#X connect 141 0 143 0;
#X connect 141 0 144 0;
#X connect 143 0 142 1;
#X connect 144 0 142 2;
#X connect 145 0 141 0;
#X connect 146 0 145 1;
#X connect 147 0 145 0;
#X connect 148 0 149 0;
#X connect 149 0 146 0;
#X connect 150 0 158 0;
#X connect 151 0 162 0;
#X connect 151 0 153 0;
#X connect 151 0 154 0;
#X connect 153 0 152 1;
#X connect 154 0 152 2;
#X connect 155 0 151 0;
#X connect 156 0 155 1;
#X connect 157 0 155 0;
#X connect 158 0 159 0;
#X connect 159 0 156 0;
#X connect 160 0 131 0;
#X connect 161 0 142 0;
#X connect 162 0 152 0;
#X connect 163 0 164 0;
#X connect 164 0 175 0;
#X connect 165 0 173 0;
#X connect 165 0 173 1;
#X connect 166 0 163 0;
#X connect 167 0 172 0;
#X connect 168 0 174 0;
#X connect 168 1 190 0;
#X connect 168 2 203 0;
#X connect 169 0 167 1;
#X connect 170 0 168 0;
#X connect 171 0 167 0;
#X connect 172 0 166 0;
#X connect 174 0 169 0;
#X connect 175 0 176 0;
#X connect 176 0 177 0;
#X connect 177 0 165 0;
#X connect 178 0 179 0;
#X connect 179 0 187 0;
#X connect 180 0 186 0;
#X connect 180 0 186 1;
#X connect 181 0 178 0;
#X connect 182 0 185 0;
#X connect 183 0 182 1;
#X connect 184 0 182 0;
#X connect 185 0 181 0;
#X connect 187 0 188 0;
#X connect 188 0 189 0;
#X connect 189 0 180 0;
#X connect 190 0 183 0;
#X connect 191 0 192 0;
#X connect 192 0 200 0;
#X connect 193 0 199 0;
#X connect 193 0 199 1;
#X connect 194 0 191 0;
#X connect 195 0 198 0;
#X connect 196 0 195 1;
#X connect 197 0 195 0;
#X connect 198 0 194 0;
#X connect 200 0 201 0;
#X connect 201 0 202 0;
#X connect 202 0 193 0;
#X connect 203 0 196 0;
#X connect 204 0 234 0;
#X connect 204 0 206 0;
#X connect 204 0 207 0;
#X connect 206 0 205 1;
#X connect 207 0 205 2;
#X connect 208 0 204 0;
#X connect 209 0 208 1;
#X connect 210 0 208 0;
#X connect 211 0 209 0;
#X connect 212 0 211 0;
#X connect 213 0 212 0;
#X connect 214 0 222 0;
#X connect 215 0 235 0;
#X connect 215 0 217 0;
#X connect 215 0 218 0;
#X connect 217 0 216 1;
#X connect 218 0 216 2;
#X connect 219 0 215 0;
#X connect 220 0 219 1;
#X connect 221 0 219 0;
#X connect 222 0 223 0;
#X connect 223 0 220 0;
#X connect 224 0 232 0;
#X connect 225 0 236 0;
#X connect 225 0 227 0;
#X connect 225 0 228 0;
#X connect 227 0 226 1;
#X connect 228 0 226 2;
#X connect 229 0 225 0;
#X connect 230 0 229 1;
#X connect 231 0 229 0;
#X connect 232 0 233 0;
#X connect 233 0 230 0;
#X connect 234 0 205 0;
#X connect 235 0 216 0;
#X connect 236 0 226 0;
#X connect 237 0 238 0;
#X connect 238 0 249 0;
#X connect 239 0 247 0;
#X connect 239 0 247 1;
#X connect 240 0 237 0;
#X connect 241 0 246 0;
#X connect 242 0 248 0;
#X connect 242 1 264 0;
#X connect 242 2 277 0;
#X connect 243 0 241 1;
#X connect 244 0 242 0;
#X connect 245 0 241 0;
#X connect 246 0 240 0;
#X connect 248 0 243 0;
#X connect 249 0 250 0;
#X connect 250 0 251 0;
#X connect 251 0 239 0;
#X connect 252 0 253 0;
#X connect 253 0 261 0;
#X connect 254 0 260 0;
#X connect 254 0 260 1;
#X connect 255 0 252 0;
#X connect 256 0 259 0;
#X connect 257 0 256 1;
#X connect 258 0 256 0;
#X connect 259 0 255 0;
#X connect 261 0 262 0;
#X connect 262 0 263 0;
#X connect 263 0 254 0;
#X connect 264 0 257 0;
#X connect 265 0 266 0;
#X connect 266 0 274 0;
#X connect 267 0 273 0;
#X connect 267 0 273 1;
#X connect 268 0 265 0;
#X connect 269 0 272 0;
#X connect 270 0 269 1;
#X connect 271 0 269 0;
#X connect 272 0 268 0;
#X connect 274 0 275 0;
#X connect 275 0 276 0;
#X connect 276 0 267 0;
#X connect 277 0 270 0;
#X connect 278 0 308 0;
#X connect 278 0 280 0;
#X connect 278 0 281 0;
#X connect 280 0 279 1;
#X connect 281 0 279 2;
#X connect 282 0 278 0;
#X connect 283 0 282 1;
#X connect 284 0 282 0;
#X connect 285 0 283 0;
#X connect 286 0 285 0;
#X connect 287 0 286 0;
#X connect 288 0 296 0;
#X connect 289 0 309 0;
#X connect 289 0 291 0;
#X connect 289 0 292 0;
#X connect 291 0 290 1;
#X connect 292 0 290 2;
#X connect 293 0 289 0;
#X connect 294 0 293 1;
#X connect 295 0 293 0;
#X connect 296 0 297 0;
#X connect 297 0 294 0;
#X connect 298 0 306 0;
#X connect 299 0 310 0;
#X connect 299 0 301 0;
#X connect 299 0 302 0;
#X connect 301 0 300 1;
#X connect 302 0 300 2;
#X connect 303 0 299 0;
#X connect 304 0 303 1;
#X connect 305 0 303 0;
#X connect 306 0 307 0;
#X connect 307 0 304 0;
#X connect 308 0 279 0;
#X connect 309 0 290 0;
#X connect 310 0 300 0;
#X connect 311 0 312 0;
#X connect 312 0 323 0;
#X connect 313 0 321 0;
#X connect 313 0 321 1;
#X connect 314 0 311 0;
#X connect 315 0 320 0;
#X connect 316 0 322 0;
#X connect 316 1 338 0;
#X connect 316 2 351 0;
#X connect 317 0 315 1;
#X connect 318 0 316 0;
#X connect 319 0 315 0;
#X connect 320 0 314 0;
#X connect 322 0 317 0;
#X connect 323 0 324 0;
#X connect 324 0 325 0;
#X connect 325 0 313 0;
#X connect 326 0 327 0;
#X connect 327 0 335 0;
#X connect 328 0 334 0;
#X connect 328 0 334 1;
#X connect 329 0 326 0;
#X connect 330 0 333 0;
#X connect 331 0 330 1;
#X connect 332 0 330 0;
#X connect 333 0 329 0;
#X connect 335 0 336 0;
#X connect 336 0 337 0;
#X connect 337 0 328 0;
#X connect 338 0 331 0;
#X connect 339 0 340 0;
#X connect 340 0 348 0;
#X connect 341 0 347 0;
#X connect 341 0 347 1;
#X connect 342 0 339 0;
#X connect 343 0 346 0;
#X connect 344 0 343 1;
#X connect 345 0 343 0;
#X connect 346 0 342 0;
#X connect 348 0 349 0;
#X connect 349 0 350 0;
#X connect 350 0 341 0;
#X connect 351 0 344 0;
#X connect 352 0 355 0;
#X connect 352 0 354 0;
#X connect 352 0 381 0;
#X connect 354 0 353 1;
#X connect 355 0 353 0;
#X connect 356 0 352 0;
#X connect 357 0 356 1;
#X connect 358 0 356 0;
#X connect 359 0 357 0;
#X connect 360 0 359 0;
#X connect 361 0 360 0;
#X connect 362 0 318 0;
#X connect 362 0 361 0;
#X connect 362 0 363 0;
#X connect 362 0 372 0;
#X connect 363 0 370 0;
#X connect 364 0 455 0;
#X connect 364 0 366 0;
#X connect 364 0 382 0;
#X connect 366 0 365 1;
#X connect 367 0 364 0;
#X connect 368 0 367 1;
#X connect 369 0 367 0;
#X connect 370 0 371 0;
#X connect 371 0 368 0;
#X connect 372 0 379 0;
#X connect 373 0 456 0;
#X connect 373 0 375 0;
#X connect 373 0 383 0;
#X connect 375 0 374 1;
#X connect 376 0 373 0;
#X connect 377 0 376 1;
#X connect 378 0 376 0;
#X connect 379 0 380 0;
#X connect 380 0 377 0;
#X connect 381 0 353 2;
#X connect 382 0 365 2;
#X connect 383 0 374 2;
#X connect 384 0 385 0;
#X connect 385 0 396 0;
#X connect 386 0 394 0;
#X connect 386 0 394 1;
#X connect 387 0 384 0;
#X connect 388 0 393 0;
#X connect 389 0 395 0;
#X connect 389 1 411 0;
#X connect 389 2 424 0;
#X connect 390 0 388 1;
#X connect 391 0 389 0;
#X connect 392 0 388 0;
#X connect 393 0 387 0;
#X connect 395 0 390 0;
#X connect 396 0 397 0;
#X connect 397 0 398 0;
#X connect 398 0 386 0;
#X connect 399 0 400 0;
#X connect 400 0 408 0;
#X connect 401 0 407 0;
#X connect 401 0 407 1;
#X connect 402 0 399 0;
#X connect 403 0 406 0;
#X connect 404 0 403 1;
#X connect 405 0 403 0;
#X connect 406 0 402 0;
#X connect 408 0 409 0;
#X connect 409 0 410 0;
#X connect 410 0 401 0;
#X connect 411 0 404 0;
#X connect 412 0 413 0;
#X connect 413 0 421 0;
#X connect 414 0 420 0;
#X connect 414 0 420 1;
#X connect 415 0 412 0;
#X connect 416 0 419 0;
#X connect 417 0 416 1;
#X connect 418 0 416 0;
#X connect 419 0 415 0;
#X connect 421 0 422 0;
#X connect 422 0 423 0;
#X connect 423 0 414 0;
#X connect 424 0 417 0;
#X connect 425 0 457 0;
#X connect 425 0 427 0;
#X connect 425 0 452 0;
#X connect 427 0 426 1;
#X connect 428 0 425 0;
#X connect 429 0 428 1;
#X connect 430 0 428 0;
#X connect 431 0 429 0;
#X connect 432 0 431 0;
#X connect 433 0 432 0;
#X connect 434 0 441 0;
#X connect 435 0 458 0;
#X connect 435 0 437 0;
#X connect 435 0 453 0;
#X connect 437 0 436 1;
#X connect 438 0 435 0;
#X connect 439 0 438 1;
#X connect 440 0 438 0;
#X connect 441 0 442 0;
#X connect 442 0 439 0;
#X connect 443 0 450 0;
#X connect 444 0 459 0;
#X connect 444 0 446 0;
#X connect 444 0 454 0;
#X connect 446 0 445 1;
#X connect 447 0 444 0;
#X connect 448 0 447 1;
#X connect 449 0 447 0;
#X connect 450 0 451 0;
#X connect 451 0 448 0;
#X connect 452 0 426 2;
#X connect 453 0 436 2;
#X connect 454 0 445 2;
#X connect 455 0 365 0;
#X connect 456 0 374 0;
#X connect 457 0 426 0;
#X connect 458 0 436 0;
#X connect 459 0 445 0;
#X connect 460 0 461 0;
#X connect 461 0 472 0;
#X connect 462 0 470 0;
#X connect 462 0 470 1;
#X connect 463 0 460 0;
#X connect 464 0 469 0;
#X connect 465 0 471 0;
#X connect 465 1 487 0;
#X connect 465 2 500 0;
#X connect 466 0 464 1;
#X connect 467 0 465 0;
#X connect 468 0 464 0;
#X connect 469 0 463 0;
#X connect 471 0 466 0;
#X connect 472 0 473 0;
#X connect 473 0 474 0;
#X connect 474 0 462 0;
#X connect 475 0 476 0;
#X connect 476 0 484 0;
#X connect 477 0 483 0;
#X connect 477 0 483 1;
#X connect 478 0 475 0;
#X connect 479 0 482 0;
#X connect 480 0 479 1;
#X connect 481 0 479 0;
#X connect 482 0 478 0;
#X connect 484 0 485 0;
#X connect 485 0 486 0;
#X connect 486 0 477 0;
#X connect 487 0 480 0;
#X connect 488 0 489 0;
#X connect 489 0 497 0;
#X connect 490 0 496 0;
#X connect 490 0 496 1;
#X connect 491 0 488 0;
#X connect 492 0 495 0;
#X connect 493 0 492 1;
#X connect 494 0 492 0;
#X connect 495 0 491 0;
#X connect 497 0 498 0;
#X connect 498 0 499 0;
#X connect 499 0 490 0;
#X connect 500 0 493 0;
#X connect 501 0 531 0;
#X connect 501 0 503 0;
#X connect 501 0 528 0;
#X connect 503 0 502 1;
#X connect 504 0 501 0;
#X connect 505 0 504 1;
#X connect 506 0 504 0;
#X connect 507 0 505 0;
#X connect 508 0 507 0;
#X connect 509 0 508 0;
#X connect 510 0 517 0;
#X connect 511 0 532 0;
#X connect 511 0 513 0;
#X connect 511 0 529 0;
#X connect 513 0 512 1;
#X connect 514 0 511 0;
#X connect 515 0 514 1;
#X connect 516 0 514 0;
#X connect 517 0 518 0;
#X connect 518 0 515 0;
#X connect 519 0 526 0;
#X connect 520 0 533 0;
#X connect 520 0 522 0;
#X connect 520 0 530 0;
#X connect 522 0 521 1;
#X connect 523 0 520 0;
#X connect 524 0 523 1;
#X connect 525 0 523 0;
#X connect 526 0 527 0;
#X connect 527 0 524 0;
#X connect 528 0 502 2;
#X connect 529 0 512 2;
#X connect 530 0 521 2;
#X connect 531 0 502 0;
#X connect 532 0 512 0;
#X connect 533 0 521 0;
#X connect 534 0 391 0;
#X connect 534 0 433 0;
#X connect 534 0 434 0;
#X connect 534 0 443 0;
#X connect 535 0 467 0;
#X connect 535 0 519 0;
#X connect 535 0 510 0;
#X connect 535 0 509 0;
#X connect 536 0 537 0;
#X connect 537 0 548 0;
#X connect 538 0 546 0;
#X connect 538 0 546 1;
#X connect 539 0 536 0;
#X connect 540 0 545 0;
#X connect 541 0 547 0;
#X connect 541 1 563 0;
#X connect 541 2 576 0;
#X connect 542 0 540 1;
#X connect 543 0 541 0;
#X connect 544 0 540 0;
#X connect 545 0 539 0;
#X connect 547 0 542 0;
#X connect 548 0 549 0;
#X connect 549 0 550 0;
#X connect 550 0 538 0;
#X connect 551 0 552 0;
#X connect 552 0 560 0;
#X connect 553 0 559 0;
#X connect 553 0 559 1;
#X connect 554 0 551 0;
#X connect 555 0 558 0;
#X connect 556 0 555 1;
#X connect 557 0 555 0;
#X connect 558 0 554 0;
#X connect 560 0 561 0;
#X connect 561 0 562 0;
#X connect 562 0 553 0;
#X connect 563 0 556 0;
#X connect 564 0 565 0;
#X connect 565 0 573 0;
#X connect 566 0 572 0;
#X connect 566 0 572 1;
#X connect 567 0 564 0;
#X connect 568 0 571 0;
#X connect 569 0 568 1;
#X connect 570 0 568 0;
#X connect 571 0 567 0;
#X connect 573 0 574 0;
#X connect 574 0 575 0;
#X connect 575 0 566 0;
#X connect 576 0 569 0;
#X connect 577 0 607 0;
#X connect 577 0 579 0;
#X connect 577 0 604 0;
#X connect 579 0 578 1;
#X connect 580 0 577 0;
#X connect 581 0 580 1;
#X connect 582 0 580 0;
#X connect 583 0 581 0;
#X connect 584 0 583 0;
#X connect 585 0 584 0;
#X connect 586 0 593 0;
#X connect 587 0 608 0;
#X connect 587 0 589 0;
#X connect 587 0 605 0;
#X connect 589 0 588 1;
#X connect 590 0 587 0;
#X connect 591 0 590 1;
#X connect 592 0 590 0;
#X connect 593 0 594 0;
#X connect 594 0 591 0;
#X connect 595 0 602 0;
#X connect 596 0 609 0;
#X connect 596 0 598 0;
#X connect 596 0 606 0;
#X connect 598 0 597 1;
#X connect 599 0 596 0;
#X connect 600 0 599 1;
#X connect 601 0 599 0;
#X connect 602 0 603 0;
#X connect 603 0 600 0;
#X connect 604 0 578 2;
#X connect 605 0 588 2;
#X connect 606 0 597 2;
#X connect 607 0 578 0;
#X connect 608 0 588 0;
#X connect 609 0 597 0;
#X connect 610 0 543 0;
#X connect 610 0 585 0;
#X connect 610 0 586 0;
#X connect 610 0 595 0;
#X connect 611 0 612 0;
#X connect 611 0 613 0;
#X connect 611 0 614 0;
